<svg width="100" height="100" viewBox="0 0 100 100" fill="none" xmlns="http://www.w3.org/2000/svg">
<path d="M65.5094 32.8312H55.4344C54.9188 32.8312 54.6594 33.0812 54.6594 33.0812L26.8938 66.5437C26.7641 66.7937 26.7641 66.9187 27.0235 66.9187H31.1563C31.5423 66.9187 31.6719 66.7937 31.6719 66.6671L37.6141 59.3C37.6141 59.3 37.7423 59.175 37.8704 59.175H47.8141C47.8141 59.175 47.9438 59.175 47.9438 59.3C47.9438 59.425 46.5235 66.5437 46.5235 66.5437C46.5235 66.6687 46.5235 66.9187 46.911 66.9187H58.9219C59.0516 66.9187 59.1813 66.9187 59.1813 66.6671L65.8954 33.2046C65.7673 33.2046 65.8954 32.8296 65.5079 32.8296L65.5094 32.8312ZM48.4594 55.8046H40.5829V55.6796L50.9141 42.8203L51.0438 42.6953C51.1719 42.6953 51.0438 42.8203 51.0438 42.8203L48.4594 55.8046C48.5891 55.6796 48.5891 55.6796 48.4594 55.8046ZM0.0313188 62.6734C0.0313188 62.6734 0.937569 59.6765 1.06569 59.8015C1.06569 59.3015 1.32351 59.1765 1.58132 59.4265C2.74538 60.5515 6.35944 63.9218 11.3969 63.9218C16.9501 63.9218 16.5626 59.5515 16.5626 58.9281C16.5626 57.1796 14.2376 48.564 13.5938 46.3171C11.7844 39.0749 16.3048 32.4578 27.0235 32.4578C32.7063 32.4578 35.5469 33.9562 36.5798 34.4546C37.2266 34.8296 37.0954 35.3296 37.0954 35.3296C37.0954 35.3296 36.4501 37.9515 36.4501 38.2C36.3204 38.45 36.0641 38.45 35.8063 38.2C34.1251 37.2031 32.1876 36.0781 29.2188 36.0781C25.7329 36.0781 23.9219 38.5749 24.8282 42.1953C25.2157 43.4453 27.411 52.0609 27.7969 53.8078C29.3485 60.0515 24.9563 67.5421 13.0782 67.5421C6.48913 67.5421 2.35788 65.1718 0.937569 64.0468C0.161006 63.4218 -0.0968062 63.0484 0.0313188 62.6734ZM63.1829 62.7984C63.1829 62.7984 63.8298 59.5531 63.8298 59.8015C63.9594 59.4265 64.3454 59.3015 64.6032 59.5515C65.8954 60.6765 69.2532 63.9218 74.2907 63.9218C79.8423 63.9218 79.4563 59.5515 79.4563 58.9281C79.4563 57.1796 77.1313 48.564 76.4845 46.3171C74.6766 39.0749 79.1985 32.4578 89.9157 32.4578C95.5985 32.4578 98.4391 33.9562 99.4719 34.4546C100.119 34.8296 99.9891 35.3296 99.9891 35.3296C99.9891 35.3296 99.3423 37.9515 99.3423 38.2C99.2141 38.45 98.9563 38.45 98.6985 38.2C97.0188 37.2015 95.0813 36.0781 92.111 36.0781C88.6251 36.0781 86.8173 38.5749 87.7204 42.1953C88.1079 43.4453 90.3032 52.0609 90.6923 53.8078C92.2391 60.0515 87.8501 67.5421 75.9673 67.5421C69.3813 67.5421 65.5094 65.2953 64.0891 64.1734C63.3126 63.5484 63.0532 63.1734 63.1829 62.7984Z" fill="#000099"/>
</svg>
