<svg width="40" height="40" viewBox="0 0 40 40" fill="none" xmlns="http://www.w3.org/2000/svg">
<g clip-path="url(#clip0_305_4104)">
<path d="M40 20.0002C40 17.5538 39.56 15.2102 38.756 13.0437L20 12.1741L1.24398 13.0436C0.440078 15.2102 0 17.5538 0 20.0002C0 22.4466 0.440078 24.7901 1.24398 26.9566L20 27.8262L38.756 26.9567C39.56 24.7901 40 22.4466 40 20.0002Z" fill="#0052B4"/>
<path d="M20.0002 39.9993C28.5995 39.9993 35.9303 34.5718 38.7562 26.9558H1.24414C4.07 34.5718 11.4009 39.9993 20.0002 39.9993Z" fill="#FF9811"/>
<path d="M1.24414 13.0435H38.7562C35.9303 5.4275 28.5995 0 20.0002 0C11.4009 0 4.07 5.4275 1.24414 13.0435Z" fill="#D80027"/>
</g>
<defs>
<clipPath id="clip0_305_4104">
<rect width="40" height="40" fill="white"/>
</clipPath>
</defs>
</svg>
