<svg width="40" height="40" viewBox="0 0 40 40" fill="none" xmlns="http://www.w3.org/2000/svg">
<g clip-path="url(#clip0_305_5130)">
<path d="M-0.000976562 19.9992C-0.000976562 22.4456 0.439102 24.789 1.24301 26.9557L19.999 27.8253L38.755 26.9557C39.559 24.789 39.999 22.4456 39.999 19.9992C39.999 17.5528 39.559 15.2093 38.755 13.0427L19.999 12.1731L1.24301 13.0426C0.439102 15.2093 -0.000976562 17.5528 -0.000976562 19.9992Z" fill="black"/>
<path d="M19.9992 -0.000488281C11.3999 -0.000488281 4.06902 5.42701 1.24316 13.043H38.7553C35.9293 5.42701 28.5985 -0.000488281 19.9992 -0.000488281Z" fill="#0052B4"/>
<path d="M38.7552 26.957H1.24316C4.06902 34.573 11.3999 40.0005 19.9992 40.0005C28.5985 40.0005 35.9293 34.573 38.7552 26.957Z" fill="#F0F0F0"/>
</g>
<defs>
<clipPath id="clip0_305_5130">
<rect width="40" height="40" fill="white"/>
</clipPath>
</defs>
</svg>
