<svg width="40" height="40" viewBox="0 0 40 40" fill="none" xmlns="http://www.w3.org/2000/svg">
<g clip-path="url(#clip0_305_4132)">
<path d="M40 20C40 31.0456 31.0456 40 20 40C8.95437 40 0 31.0456 0 20C0 20.0048 20 0.0021875 20 0C31.0456 0 40 8.95437 40 20Z" fill="#0052B4"/>
<path d="M19.9473 20.0011H20.0009C20.0009 19.9831 20.0009 19.9656 20.0009 19.9475C19.983 19.9654 19.9652 19.9833 19.9473 20.0011Z" fill="#F0F0F0"/>
<path d="M20.001 10.435C20.001 6.91587 20.001 4.61001 20.001 0.000244141H19.9976C8.95339 0.00211914 0.000976562 8.95564 0.000976562 20.0002H10.4357V14.1244L16.3116 20.0002H19.9475C19.9653 19.9824 19.9832 19.9646 20.001 19.9467C20.001 18.5993 20.001 17.397 20.001 16.311L14.125 10.435H20.001Z" fill="#F0F0F0"/>
<path d="M10.1191 2.6084C6.99102 4.38957 4.39047 6.99004 2.60938 10.1181V19.9997H7.8268V7.82598V7.82582H20.0007C20.0007 6.18028 20.0007 4.61262 20.0007 2.6084H10.1191Z" fill="#D80027"/>
<path d="M20.0008 17.5413L12.8949 10.4355H10.4355V10.4357L20.0006 20.0007H20.0008C20.0008 20.0007 20.0008 18.3049 20.0008 17.5413Z" fill="#D80027"/>
<path d="M31.3047 12.173L28.696 13.0426L26.0873 12.173L25.2178 9.9991L26.0873 7.8252H31.3047L30.4351 9.9991L31.3047 12.173Z" fill="#ACABB1"/>
<path d="M22.6084 12.1731V21.7383C22.6084 26.3976 28.6954 27.8253 28.6954 27.8253C28.6954 27.8253 34.7823 26.3976 34.7823 21.7383V12.1731H22.6084Z" fill="#338AF3"/>
<path d="M23.1582 24.0037C24.6545 26.8763 28.6965 27.8247 28.6965 27.8247C28.6965 27.8247 32.7385 26.8763 34.2348 24.0037L28.6965 14.7812L23.1582 24.0037Z" fill="#6DA544"/>
<path d="M34.7823 21.6416L28.6954 12.1731L22.6084 21.6417V21.7383C22.6084 22.6006 22.8173 23.352 23.1571 24.0043L28.6954 15.3891L34.2336 24.0043C34.5734 23.3518 34.7823 22.6005 34.7823 21.7382V21.6416Z" fill="#FFDA44"/>
</g>
<defs>
<clipPath id="clip0_305_4132">
<rect width="40" height="40" fill="white"/>
</clipPath>
</defs>
</svg>
